<svg width="512" height="512" viewBox="0 0 512 512" fill="none" xmlns="http://www.w3.org/2000/svg">
  <rect width="512" height="512" rx="128" fill="#1B1D2A"/>
  <circle cx="394" cy="118" r="42" fill="#D8A851"/>
  <rect x="92" y="108" width="246" height="296" rx="40" fill="#FFF8EC"/>
  <rect x="126" y="152" width="150" height="26" rx="13" fill="#E05A47"/>
  <rect x="126" y="198" width="176" height="18" rx="9" fill="#1D6772" fill-opacity="0.85"/>
  <rect x="126" y="230" width="154" height="18" rx="9" fill="#1D6772" fill-opacity="0.65"/>
  <rect x="126" y="262" width="122" height="18" rx="9" fill="#1D6772" fill-opacity="0.45"/>
  <path d="M316 246C316 208.444 346.444 178 384 178H387C424.556 178 455 208.444 455 246V248C455 285.556 424.556 316 387 316H372L340 344V306.5C325.704 294.521 316 271.137 316 246Z" fill="#1D6772"/>
  <rect x="351" y="222" width="69" height="14" rx="7" fill="#FFF8EC"/>
  <rect x="351" y="249" width="49" height="14" rx="7" fill="#FFF8EC" fill-opacity="0.92"/>
  <rect x="126" y="314" width="118" height="56" rx="20" fill="#E05A47" fill-opacity="0.15"/>
  <path d="M155 354V331.818H161.165L173.395 346.229V331.818H180.607V354H174.698L162.213 339.333V354H155ZM191.143 354.529C189.296 354.529 187.653 354.173 186.214 353.461C184.784 352.739 183.661 351.742 182.845 350.469C182.038 349.197 181.635 347.73 181.635 346.068C181.635 344.407 182.038 342.94 182.845 341.667C183.661 340.395 184.784 339.403 186.214 338.692C187.653 337.97 189.296 337.609 191.143 337.609C192.99 337.609 194.628 337.97 196.057 338.692C197.496 339.403 198.619 340.395 199.426 341.667C200.242 342.94 200.65 344.407 200.65 346.068C200.65 347.73 200.242 349.197 199.426 350.469C198.619 351.742 197.496 352.739 196.057 353.461C194.628 354.173 192.99 354.529 191.143 354.529ZM191.143 348.8C192.092 348.8 192.866 348.55 193.465 348.05C194.064 347.54 194.363 346.879 194.363 346.068C194.363 345.258 194.064 344.601 193.465 344.098C192.866 343.588 192.092 343.333 191.143 343.333C190.194 343.333 189.42 343.588 188.821 344.098C188.222 344.601 187.923 345.258 187.923 346.068C187.923 346.879 188.222 347.54 188.821 348.05C189.42 348.55 190.194 348.8 191.143 348.8ZM209.54 354.529C208.186 354.529 206.874 354.397 205.605 354.132C204.345 353.856 203.321 353.494 202.533 353.044L204.628 348.29C205.36 348.693 206.174 349.017 207.07 349.261C207.973 349.505 208.844 349.627 209.682 349.627C210.327 349.627 210.777 349.569 211.032 349.452C211.285 349.325 211.412 349.144 211.412 348.911C211.412 348.646 211.229 348.46 210.862 348.353C210.495 348.237 209.88 348.115 209.017 347.987C207.775 347.817 206.727 347.62 205.871 347.395C205.016 347.172 204.275 346.768 203.648 346.185C203.029 345.593 202.72 344.762 202.72 343.69C202.72 342.786 202.99 341.969 203.529 341.238C204.06 340.5 204.857 339.917 205.918 339.492C206.978 338.967 208.255 338.705 209.75 338.705C210.8 338.705 211.837 338.812 212.861 339.024C213.884 339.226 214.739 339.519 215.425 339.901L213.484 344.656C212.198 343.983 210.95 343.646 209.74 343.646C209.105 343.646 208.653 343.716 208.385 343.858C208.125 343.993 207.995 344.173 207.995 344.397C207.995 344.641 208.176 344.821 208.537 344.937C208.895 345.054 209.493 345.175 210.331 345.303C211.572 345.472 212.625 345.675 213.484 345.91C214.347 346.132 215.091 346.535 215.716 347.118C216.352 347.69 216.67 348.506 216.67 349.57C216.67 350.463 216.4 351.275 215.859 352.006C215.329 352.729 214.531 353.306 213.466 353.735C212.413 354.264 211.104 354.529 209.54 354.529Z" fill="#E05A47"/>
</svg>
